<svg width="24" height="25" viewBox="0 0 24 25" fill="none" xmlns="http://www.w3.org/2000/svg">
<path d="M4.93108 4.78516C4.0786 4.78516 3.26103 5.1238 2.65824 5.7266C2.05544 6.32939 1.7168 7.14696 1.7168 7.99944V8.6423H22.2848V7.99944C22.2848 7.14696 21.9462 6.32939 21.3434 5.7266C20.7406 5.1238 19.923 4.78516 19.0705 4.78516H4.93108ZM1.7168 16.9994V9.92801H22.2848V16.9994C22.2848 17.8519 21.9462 18.6695 21.3434 19.2723C20.7406 19.8751 19.923 20.2137 19.0705 20.2137H4.93194C4.07946 20.2137 3.26189 19.8751 2.6591 19.2723C2.0563 18.6695 1.71765 17.8519 1.71765 16.9994H1.7168ZM15.6419 14.6423C15.4714 14.6423 15.3079 14.71 15.1874 14.8306C15.0668 14.9511 14.9991 15.1147 14.9991 15.2852C14.9991 15.4557 15.0668 15.6192 15.1874 15.7397C15.3079 15.8603 15.4714 15.928 15.6419 15.928H18.6419C18.8124 15.928 18.976 15.8603 19.0965 15.7397C19.2171 15.6192 19.2848 15.4557 19.2848 15.2852C19.2848 15.1147 19.2171 14.9511 19.0965 14.8306C18.976 14.71 18.8124 14.6423 18.6419 14.6423H15.6419Z" fill="white"/>
</svg>
