<svg width="24" height="25" viewBox="0 0 24 25" fill="none" xmlns="http://www.w3.org/2000/svg">
<path d="M2.33291 9.5406L3.33291 8.95393V11.1673H20.6662V8.97393L21.6529 9.5406C21.8053 9.6203 21.9825 9.63805 22.1477 9.59014C22.3128 9.54224 22.4531 9.43237 22.5391 9.28351C22.6252 9.13464 22.6504 8.95828 22.6095 8.79127C22.5685 8.62426 22.4647 8.47951 22.3196 8.38727L11.9996 2.44727L1.66624 8.38727C1.58657 8.42894 1.51616 8.4863 1.45923 8.5559C1.4023 8.6255 1.36004 8.70589 1.33499 8.79224C1.30994 8.87859 1.30262 8.96912 1.31346 9.05838C1.3243 9.14763 1.35309 9.23377 1.39808 9.31162C1.44308 9.38946 1.50336 9.4574 1.57529 9.51134C1.64722 9.56529 1.72932 9.60412 1.81665 9.62551C1.90398 9.6469 1.99474 9.65041 2.08346 9.63582C2.17218 9.62122 2.25703 9.58884 2.33291 9.5406ZM11.8996 5.2406C11.9807 5.19379 12.0726 5.16915 12.1662 5.16915C12.2599 5.16915 12.3518 5.19379 12.4329 5.2406L16.9129 7.83393H14.7662L12.1662 6.3406L9.56624 7.83393H7.42624L11.8996 5.2406Z" fill="white"/>
<path d="M21.8996 18.5006H21.3329V17.9339C21.3329 17.7306 21.2521 17.5356 21.1084 17.3918C20.9646 17.248 20.7696 17.1673 20.5662 17.1673H18.6662V12.2539H15.9996V17.1673H13.3329V12.2539H10.6662V17.1673H7.99958V12.2539H5.33291V17.1673H3.43291C3.22958 17.1673 3.03457 17.248 2.8908 17.3918C2.74702 17.5356 2.66624 17.7306 2.66624 17.9339V18.5006H2.09958C1.89624 18.5006 1.70124 18.5814 1.55746 18.7252C1.41368 18.8689 1.33291 19.0639 1.33291 19.2673V21.1673H22.6662V19.2673C22.6662 19.0639 22.5855 18.8689 22.4417 18.7252C22.2979 18.5814 22.1029 18.5006 21.8996 18.5006Z" fill="white"/>
</svg>
