<svg width="24" height="25" viewBox="0 0 24 25" fill="none" xmlns="http://www.w3.org/2000/svg">
<path d="M12 2C9.81276 2.00258 7.71584 2.8726 6.16923 4.41922C4.62261 5.96584 3.75259 8.06276 3.75001 10.25C3.74739 12.0374 4.33124 13.7763 5.41201 15.2C5.41201 15.2 5.63701 15.4962 5.67376 15.539L12 23L18.3293 15.5353C18.3623 15.4955 18.588 15.2 18.588 15.2L18.5888 15.1978C19.669 13.7747 20.2526 12.0366 20.25 10.25C20.2474 8.06276 19.3774 5.96584 17.8308 4.41922C16.2842 2.8726 14.1873 2.00258 12 2ZM12.75 14H11.25V12.5H12.75V14ZM12.75 11H11.25V9.5H12.75V11ZM15.75 14H14.25V8H9.75001V14H8.25001V8C8.25041 7.6023 8.40857 7.221 8.68979 6.93978C8.97101 6.65856 9.35231 6.5004 9.75001 6.5H14.25C14.6477 6.5004 15.029 6.65856 15.3102 6.93978C15.5914 7.221 15.7496 7.6023 15.75 8V14Z" fill="white"/>
</svg>
