<svg width="25" height="25" viewBox="0 0 25 25" fill="none" xmlns="http://www.w3.org/2000/svg">
<path d="M10.7789 0.635387C5.21203 1.49482 0.951949 6.07848 0.533781 11.7039C0.0633432 17.772 4.55864 23.3193 10.7527 24.361C14.2288 24.934 18.0184 23.7099 20.7365 21.1577C23.2716 18.7877 24.5 15.9229 24.5 12.4852C24.5 5.21904 17.94 -0.45844 10.7789 0.635387ZM16.79 2.92722C21.2069 5.0107 23.7421 9.59435 22.9319 14.1259C22.6182 15.949 21.4944 18.4491 20.6058 19.2305C20.1092 19.6732 19.9786 19.6992 19.4036 19.3867C18.0968 18.6835 17.7048 17.6158 17.7048 14.777V12.1987L18.6195 11.8601C19.6911 11.4955 20.5797 10.4538 20.5797 9.59435C20.5797 8.96931 20.5274 8.96931 18.0968 8.96931H15.6139V15.2458L9.47211 15.0895L9.3153 8.96931H6.85856C4.11434 8.96931 4.0098 9.04744 4.76773 10.5319C5.15976 11.3132 6.36199 12.0945 7.11992 12.0945C7.43354 12.0945 7.51195 12.5112 7.51195 14.5947C7.51195 17.3814 7.14605 18.345 5.68247 19.3867L4.92454 19.9336L4.0882 18.8138C2.49394 16.6261 2.18032 15.6364 2.18032 12.4852C2.15418 9.85479 2.20645 9.49018 2.88597 8.13592C4.29729 5.27113 7.11992 2.92722 10.021 2.198C11.9027 1.72921 14.9083 2.06778 16.79 2.92722ZM11.4323 18.2148C11.4323 19.1002 11.4061 19.1263 10.3607 19.1263H9.3153L9.3937 20.0899L9.47211 21.0795H15.4833L15.5617 20.0899L15.6401 19.1263H14.5947C13.5492 19.1263 13.5231 19.1002 13.5231 18.2148V17.3032H14.7776C16.006 17.3032 16.0844 17.3293 16.5287 18.345C16.79 18.944 17.4173 19.7774 17.9139 20.1941C18.7502 20.9493 18.7763 21.0014 18.332 21.34C17.365 22.0952 14.9083 22.8505 13.1049 22.9547C10.988 23.1109 8.84486 22.6161 7.22446 21.5744L6.20518 20.9493L7.25059 20.0118C7.82557 19.4909 8.42669 18.6835 8.60964 18.1887C8.89713 17.3553 8.97554 17.3032 10.1778 17.3032H11.4323V18.2148Z" fill="white"/>
<path d="M9.94211 4.12515C8.6092 4.56789 7.30242 5.3492 6.49223 6.20864L5.86497 6.88577H6.91039C7.56378 6.88577 8.53079 6.59929 9.34099 6.18259C11.275 5.19294 13.6272 5.1669 15.6396 6.15655C16.9987 6.83368 19.0111 7.1462 19.0111 6.67742C19.0111 6.33885 17.1816 5.03668 15.9271 4.48976C14.3851 3.81263 11.458 3.63033 9.94211 4.12515Z" fill="white"/>
</svg>
