<svg width="24" height="25" viewBox="0 0 24 25" fill="none" xmlns="http://www.w3.org/2000/svg">
<path d="M11.25 8.347C10.314 8.603 9.75 9.322 9.75 10C9.75 10.678 10.314 11.397 11.25 11.652V8.347ZM12.75 13.348V16.652C13.686 16.397 14.25 15.678 14.25 15C14.25 14.322 13.686 13.603 12.75 13.348Z" fill="white"/>
<path fill-rule="evenodd" clip-rule="evenodd" d="M22 12.5C22 18.023 17.523 22.5 12 22.5C6.477 22.5 2 18.023 2 12.5C2 6.977 6.477 2.5 12 2.5C17.523 2.5 22 6.977 22 12.5ZM12 5.75C12.1989 5.75 12.3897 5.82902 12.5303 5.96967C12.671 6.11032 12.75 6.30109 12.75 6.5V6.817C14.38 7.109 15.75 8.334 15.75 10C15.75 10.1989 15.671 10.3897 15.5303 10.5303C15.3897 10.671 15.1989 10.75 15 10.75C14.8011 10.75 14.6103 10.671 14.4697 10.5303C14.329 10.3897 14.25 10.1989 14.25 10C14.25 9.322 13.686 8.603 12.75 8.347V11.817C14.38 12.109 15.75 13.334 15.75 15C15.75 16.666 14.38 17.891 12.75 18.183V18.5C12.75 18.6989 12.671 18.8897 12.5303 19.0303C12.3897 19.171 12.1989 19.25 12 19.25C11.8011 19.25 11.6103 19.171 11.4697 19.0303C11.329 18.8897 11.25 18.6989 11.25 18.5V18.183C9.62 17.891 8.25 16.666 8.25 15C8.25 14.8011 8.32902 14.6103 8.46967 14.4697C8.61032 14.329 8.80109 14.25 9 14.25C9.19891 14.25 9.38968 14.329 9.53033 14.4697C9.67098 14.6103 9.75 14.8011 9.75 15C9.75 15.678 10.314 16.397 11.25 16.652V13.183C9.62 12.891 8.25 11.666 8.25 10C8.25 8.334 9.62 7.109 11.25 6.817V6.5C11.25 6.30109 11.329 6.11032 11.4697 5.96967C11.6103 5.82902 11.8011 5.75 12 5.75Z" fill="white"/>
</svg>
