<svg width="36" height="36" viewBox="0 0 36 36" fill="none" xmlns="http://www.w3.org/2000/svg">
<rect width="36" height="36" rx="8" fill="#62C9CC"/>
<rect x="0.5" y="0.5" width="35" height="35" rx="7.5" stroke="#62C9CC" stroke-opacity="0.12"/>
<path d="M18 8C12.48 8 8 12.48 8 18C8 23.52 12.48 28 18 28C23.52 28 28 23.52 28 18C28 12.48 23.52 8 18 8ZM19 25H17V23H19V25ZM21.07 17.25L20.17 18.17C19.45 18.9 19 19.5 19 21H17V20.5C17 19.4 17.45 18.4 18.17 17.67L19.41 16.41C19.78 16.05 20 15.55 20 15C20 13.9 19.1 13 18 13C16.9 13 16 13.9 16 15H14C14 12.79 15.79 11 18 11C20.21 11 22 12.79 22 15C22 15.88 21.64 16.68 21.07 17.25Z" fill="white"/>
</svg>
